<svg width="20" height="20" viewBox="0 0 20 20" fill="none" xmlns="http://www.w3.org/2000/svg">
<g clip-path="url(#clip0_3391_1964)">
<g filter="url(#filter0_d_3391_1964)">
<path d="M4.75462 1.32355C4.50952 1.32355 4.26443 1.51963 4.26443 1.81375V2.30394H2.79383C2.00952 2.30394 1.32324 2.9412 1.32324 3.77453V5.73531V15.5393C1.32324 16.3726 1.9605 17.0098 2.79383 17.0098H15.539C16.3723 17.0098 17.0096 16.3726 17.0096 15.5393V5.73531V3.77453C17.0096 2.9412 16.3723 2.30394 15.539 2.30394H14.0684V1.81375C14.0684 1.51963 13.8723 1.32355 13.5781 1.32355C13.284 1.32355 13.088 1.51963 13.088 1.81375V2.30394H5.24482V1.81375C5.24482 1.51963 5.04873 1.32355 4.75462 1.32355ZM16.0291 15.5393C16.0291 15.8333 15.8331 16.0294 15.539 16.0294H2.79383C2.49972 16.0294 2.30363 15.8333 2.30363 15.5393V6.22551H16.0291V15.5393ZM13.088 3.28433V3.77453C13.088 4.06865 13.284 4.26472 13.5781 4.26472C13.8723 4.26472 14.0684 4.06865 14.0684 3.77453V3.28433H15.539C15.8331 3.28433 16.0291 3.48041 16.0291 3.77453V5.24511H2.30363V3.77453C2.30363 3.48041 2.49972 3.28433 2.79383 3.28433H4.26443V3.77453C4.26443 4.06865 4.4605 4.26472 4.75462 4.26472C5.04873 4.26472 5.24482 4.06865 5.24482 3.77453V3.28433H13.088Z" fill="white"/>
<path d="M4.31344 10.3922H6.27423C6.56834 10.3922 6.76443 10.1961 6.76443 9.902V7.94118C6.76443 7.64706 6.56834 7.45099 6.27423 7.45099H4.31344C4.01933 7.45099 3.82324 7.64706 3.82324 7.94118V9.902C3.82324 10.1961 4.01933 10.3922 4.31344 10.3922ZM4.80363 8.43134H5.78403V9.41176H4.80363V8.43134Z" fill="white"/>
<path d="M8.23532 10.3922H10.1961C10.4902 10.3922 10.6863 10.1961 10.6863 9.902V7.94118C10.6863 7.64706 10.4902 7.45099 10.1961 7.45099H8.23532C7.9412 7.45099 7.74512 7.64706 7.74512 7.94118V9.902C7.74512 10.1961 7.9412 10.3922 8.23532 10.3922ZM8.72551 8.43134H9.70594V9.41176H8.72551V8.43134Z" fill="white"/>
<path d="M12.1562 10.3922H14.117C14.4111 10.3922 14.6072 10.1961 14.6072 9.902V7.94118C14.6072 7.64706 14.4111 7.45099 14.117 7.45099H12.1562C11.8621 7.45099 11.666 7.64706 11.666 7.94118V9.902C11.666 10.1961 11.8621 10.3922 12.1562 10.3922ZM12.6464 8.43134H13.6268V9.41176H12.6464V8.43134Z" fill="white"/>
<path d="M4.31344 14.804H6.27423C6.56834 14.804 6.76443 14.6079 6.76443 14.3138V12.353C6.76443 12.0589 6.56834 11.8628 6.27423 11.8628H4.31344C4.01933 11.8628 3.82324 12.0589 3.82324 12.353V14.3138C3.82324 14.6079 4.01933 14.804 4.31344 14.804ZM4.80363 12.8432H5.78403V13.8235H4.80363V12.8432Z" fill="white"/>
<path d="M8.23532 14.804H10.1961C10.4902 14.804 10.6863 14.6079 10.6863 14.3138V12.353C10.6863 12.0589 10.4902 11.8628 10.1961 11.8628H8.23532C7.9412 11.8628 7.74512 12.0589 7.74512 12.353V14.3138C7.74512 14.6079 7.9412 14.804 8.23532 14.804ZM8.72551 12.8432H9.70594V13.8235H8.72551V12.8432Z" fill="white"/>
<path d="M12.1562 14.804H14.117C14.4111 14.804 14.6072 14.6079 14.6072 14.3138V12.353C14.6072 12.0589 14.4111 11.8628 14.117 11.8628H12.1562C11.8621 11.8628 11.666 12.0589 11.666 12.353V14.3138C11.666 14.6079 11.8621 14.804 12.1562 14.804ZM12.6464 12.8432H13.6268V13.8235H12.6464V12.8432Z" fill="white"/>
</g>
</g>
<defs>
<filter id="filter0_d_3391_1964" x="0.489909" y="0.490214" width="19.0199" height="19.0196" filterUnits="userSpaceOnUse" color-interpolation-filters="sRGB">
<feFlood flood-opacity="0" result="BackgroundImageFix"/>
<feColorMatrix in="SourceAlpha" type="matrix" values="0 0 0 0 0 0 0 0 0 0 0 0 0 0 0 0 0 0 127 0" result="hardAlpha"/>
<feOffset dx="0.833333" dy="0.833333"/>
<feGaussianBlur stdDeviation="0.833333"/>
<feComposite in2="hardAlpha" operator="out"/>
<feColorMatrix type="matrix" values="0 0 0 0 0 0 0 0 0 0 0 0 0 0 0 0 0 0 0.35 0"/>
<feBlend mode="normal" in2="BackgroundImageFix" result="effect1_dropShadow_3391_1964"/>
<feBlend mode="normal" in="SourceGraphic" in2="effect1_dropShadow_3391_1964" result="shape"/>
</filter>
<clipPath id="clip0_3391_1964">
<rect width="20" height="20" fill="white"/>
</clipPath>
</defs>
</svg>
