<svg width="20" height="20" viewBox="0 0 20 20" fill="none" xmlns="http://www.w3.org/2000/svg">
<g clip-path="url(#clip0_3391_1959)">
<path d="M15.7683 12.2755C15.3783 11.8695 14.908 11.6524 14.4095 11.6524C13.915 11.6524 13.4407 11.8654 13.0346 12.2715L11.7642 13.5378C11.6597 13.4815 11.5551 13.4293 11.4547 13.377C11.31 13.3047 11.1732 13.2363 11.0567 13.164C9.86676 12.4082 8.78531 11.4232 7.74812 10.1488C7.24561 9.51367 6.90791 8.979 6.66269 8.43628C6.99234 8.13477 7.29787 7.8212 7.59536 7.51968C7.70792 7.40712 7.82049 7.29054 7.93305 7.17798C8.77728 6.33375 8.77728 5.24028 7.93305 4.39605L6.83555 3.29855C6.71093 3.17393 6.58229 3.04528 6.46169 2.91664C6.22048 2.66739 5.96721 2.4101 5.7059 2.16889C5.31594 1.78296 4.84961 1.57794 4.35915 1.57794C3.8687 1.57794 3.39432 1.78296 2.99231 2.16889C2.9883 2.17291 2.9883 2.17291 2.98427 2.17693L1.61743 3.55584C1.10285 4.07042 0.80938 4.69756 0.745058 5.4252C0.648575 6.59908 0.994304 7.69255 1.25964 8.40814C1.9109 10.1649 2.88377 11.7931 4.33504 13.5378C6.09585 15.6404 8.21446 17.3007 10.6346 18.4706C11.5592 18.9088 12.7934 19.4273 14.1723 19.5158C14.2568 19.5198 14.3451 19.5238 14.4255 19.5238C15.3542 19.5238 16.1341 19.1901 16.7451 18.5268C16.7492 18.5188 16.7572 18.5148 16.7612 18.5068C16.9703 18.2534 17.2115 18.0243 17.4648 17.779C17.6376 17.6143 17.8146 17.4414 17.9874 17.2605C18.3854 16.8464 18.5945 16.364 18.5945 15.8695C18.5945 15.371 18.3813 14.8926 17.9753 14.4906L15.7683 12.2755ZM17.2075 16.5087C17.2034 16.5128 17.2034 16.5087 17.2075 16.5087C17.0507 16.6775 16.8899 16.8303 16.717 16.9991C16.4557 17.2484 16.1904 17.5097 15.9411 17.8032C15.5351 18.2373 15.0568 18.4424 14.4296 18.4424C14.3692 18.4424 14.305 18.4424 14.2447 18.4384C13.0507 18.362 11.9411 17.8956 11.109 17.4976C8.83356 16.3962 6.83555 14.8323 5.17524 12.8504C3.80438 11.1981 2.88779 9.67046 2.28075 8.03025C1.90688 7.02924 1.77019 6.24933 1.83049 5.51365C1.8707 5.04329 2.0516 4.65333 2.38527 4.31967L3.75613 2.9488C3.95312 2.76388 4.16217 2.66337 4.3672 2.66337C4.62047 2.66337 4.82549 2.81614 4.95413 2.94478C4.95815 2.9488 4.96217 2.95282 4.96619 2.95685C5.21142 3.18599 5.44459 3.42318 5.68982 3.67645C5.81444 3.80509 5.94309 3.93373 6.07173 4.0664L7.16923 5.16389C7.59536 5.59003 7.59536 5.984 7.16923 6.41013C7.05264 6.52671 6.94008 6.6433 6.8235 6.75587C6.4858 7.1016 6.16419 7.42321 5.81444 7.73678C5.8064 7.74482 5.79836 7.74884 5.79434 7.75688C5.44861 8.10261 5.51293 8.4403 5.5853 8.66945C5.58931 8.6815 5.59333 8.69357 5.59735 8.70563C5.88278 9.39709 6.2848 10.0484 6.89586 10.8243L6.89988 10.8283C8.00943 12.1951 9.1793 13.2605 10.4697 14.0766C10.6346 14.181 10.8034 14.2655 10.9642 14.3459C11.109 14.4183 11.2456 14.4866 11.3622 14.5589C11.3783 14.5669 11.3944 14.579 11.4105 14.587C11.5471 14.6554 11.6758 14.6876 11.8085 14.6876C12.1421 14.6876 12.3511 14.4786 12.4195 14.4102L13.7944 13.0353C13.931 12.8987 14.1482 12.7338 14.4014 12.7338C14.6507 12.7338 14.8557 12.8906 14.9804 13.0272C14.9844 13.0313 14.9844 13.0313 14.9884 13.0353L17.2034 15.2504C17.6175 15.6605 17.6175 16.0826 17.2075 16.5087Z" fill="white"/>
<path d="M11.0083 5.0071C12.0615 5.18398 13.0183 5.68248 13.7822 6.44631C14.546 7.21014 15.0404 8.16693 15.2213 9.22019C15.2656 9.48553 15.4947 9.67045 15.756 9.67045C15.7882 9.67045 15.8163 9.66643 15.8484 9.66241C16.146 9.61417 16.3429 9.33277 16.2947 9.03527C16.0776 7.76089 15.4746 6.59907 14.554 5.67846C13.6334 4.75785 12.4716 4.15483 11.1972 3.93775C10.8997 3.88951 10.6223 4.08649 10.5701 4.37997C10.5178 4.67343 10.7107 4.95886 11.0083 5.0071Z" fill="white"/>
<path d="M19.7402 8.8785C19.3824 6.78 18.3935 4.87044 16.8739 3.35083C15.3542 1.83122 13.4447 0.842262 11.3461 0.48447C11.0527 0.432209 10.7753 0.633215 10.7231 0.926684C10.6748 1.22417 10.8719 1.50156 11.1693 1.55383C13.0427 1.87142 14.7512 2.75987 16.11 4.11465C17.4688 5.47346 18.3533 7.18201 18.6709 9.05539C18.7151 9.32071 18.9442 9.50565 19.2056 9.50565C19.2377 9.50565 19.2659 9.50163 19.298 9.4976C19.5915 9.45338 19.7925 9.17197 19.7402 8.8785Z" fill="white"/>
</g>
<defs>
<clipPath id="clip0_3391_1959">
<rect width="20" height="20" fill="white"/>
</clipPath>
</defs>
</svg>
